<svg xmlns="http://www.w3.org/2000/svg" viewBox="0 0 1024 1024" preserveAspectRatio="xMidYMid meet"><path fill="#f8fefe" d="M0 0h1024v1024H0z"/><path fill="#3f77ff" d="m252.252 371.839 3.177-.03 3.422-.012 3.543-.017q3.715-.015 7.43-.02c3.765-.01 7.531-.041 11.297-.072q3.615-.01 7.23-.016c1.676-.02 1.676-.02 3.385-.037C303 371.665 311.873 373.92 320 382c5.446 6.785 7.133 11.479 7.097 20.172l-.004 2.068q-.01 3.255-.03 6.51-.008 2.212-.015 4.426-.017 5.412-.048 10.824c-1.528-2.292-2.58-4.217-3.688-6.687-4.758-9.5-12.14-15.562-22.012-19.348-10.708-3.284-20.193-2.926-30.3 2.035-9.47 5.685-15.135 13.367-18.586 23.766-2.1 11.337-.96 22.827 5.093 32.69 3.52 4.936 7.401 8.227 12.575 11.353 1.918 1.19 1.918 1.19 3.918 3.19l-3.149.919c-12.076 3.594-22.199 7.743-31.85 16.082l-2.06 1.735c-12.692 11.578-17.59 27.323-18.385 43.99l-.119 2.713-.13 2.795q-.159 3.382-.307 6.767-8.084.074-16.169.11-2.745.015-5.49.04c-2.644.026-5.287.037-7.93.045-.808.01-1.615.02-2.446.032-9.249.002-18.798-1.576-25.88-7.95-9.065-9.702-10.237-19.87-10.289-32.667-.005-1.1-.01-2.2-.017-3.333q-.014-3.485-.02-6.97c-.009-3.531-.04-7.061-.072-10.592q-.01-3.397-.016-6.793l-.037-3.167c.033-11.123 2.308-18.568 10.08-26.618 5.011-4.686 9.298-7.268 16.308-7.25h3.093l3.334.015 3.417.005c3.607.005 7.214.018 10.821.03q3.665.008 7.33.014 8.99.016 17.983.049l-.027-1.68c-.089-5.807-.149-11.615-.193-17.424q-.03-3.244-.082-6.488a914 914 0 0 1-.089-9.37c-.02-.953-.04-1.908-.063-2.891-.003-10.727 3.742-18.315 11.075-26.01 5.734-5.151 12.018-7.242 19.631-7.298"/><path fill="#5267ff" d="M329.715 497c8.009 6.744 14.788 15.659 17.285 26 .34 4.177.285 8.313.188 12.5l-.041 3.359A960 960 0 0 1 347 547h-19l.14 8.434q.046 4.08.08 8.161.03 2.819.082 5.636c.049 2.714.07 5.426.089 8.14l.062 2.511c.004 8.957-3.493 15.832-9.52 22.325-5.711 5.296-11.143 7.893-18.926 7.954l-3.005.029-3.232.013-3.35.017q-3.507.014-7.017.02c-3.56.01-7.12.041-10.678.072q-3.416.01-6.83.016l-3.202.038c-8.41-.026-16.027-1.172-22.505-6.928l-2.145-1.817c-6.373-8.177-6.626-17.01-6.54-27.027q0-2.062-.003-4.123-.002-4.296.034-8.593c.028-3.644.025-7.288.013-10.932-.007-2.833 0-5.666.013-8.499.006-1.988.002-3.977-.002-5.965.145-14.079 3.914-24.918 13.692-35.232 22.208-20.953 60.063-22.226 84.465-4.25"/><path fill="#304558" d="M448 380h21c6.917 13.291 12.839 26.951 18.733 40.715a1849 1849 0 0 0 6.579 15.16l.86 1.961L497 442c1.761-2.642 2.942-4.994 4.183-7.895l1.295-3.015 1.389-3.258 1.443-3.36q2.286-5.329 4.565-10.66 2.269-5.304 4.544-10.606a2975 2975 0 0 0 2.825-6.601l1.314-3.063 1.139-2.664c1.664-3.675 3.499-7.27 5.303-10.878h21c2.459 26.421 4.444 52.87 6.367 79.335Q553.153 470.17 554 481h-18c-2.234-23.986-4.457-47.958-6-72l-1.285 2.973c-3.186 7.34-6.442 14.632-9.869 21.865-3.299 7.026-6.34 14.166-9.382 21.307l-1.23 2.863-1.087 2.551c-1.234 2.627-2.488 5.055-4.147 7.441-2.918.488-2.918.488-6.188.312l-3.292-.136L491 468q-3.505-7.498-7-15l-1.52-3.258C465 412.085 465 412.085 465 408h-2l.051 2.875c.137 11.706-.492 23.318-1.278 34.994q-.316 4.73-.619 9.463l-.4 6.106-.183 2.812A338 338 0 0 1 459 481h-18c-.129-8.342.273-16.48 1.054-24.784.352-3.751.683-7.505 1.012-11.259l.221-2.515c1.085-12.533 1.981-25.083 2.901-37.63l.273-3.729q.774-10.54 1.539-21.083"/><path fill="#304558" d="M708 372h18v109h-16l-2-8-1.398 1.426c-6.626 6.324-12.93 8.596-22.04 9.012-9.748-.357-17.261-3.936-24.261-10.668-9.166-11.034-11.51-23.692-10.301-37.77 2.611-10.642 7.676-19.574 17.062-25.438 8.578-4.879 17.108-5.842 26.793-4.027 5.35 1.481 8.289 3.228 13.145 6.465z"/><path fill="#7948ff" d="M327 443c6.653-.102 13.305-.172 19.958-.22q3.39-.03 6.78-.082c3.262-.049 6.523-.071 9.785-.089l3.026-.062c7.876-.003 14.576 1.667 21.037 6.312 6.257 6.612 10.497 13.25 10.591 22.555l.039 3.36.022 3.636.025 3.749q.02 3.936.032 7.871c.013 3.992.061 7.984.105 11.976q.016 3.827.026 7.654l.053 3.593c-.025 9.466-1.908 18.01-8.502 25.145-6.906 5.596-14.912 8.769-23.727 8.664l-2.984-.027L361 547l-.028-1.69c-.401-19.12-2.56-36.839-16.132-51.599C333.148 482.838 320.26 476.837 305 473l2.254-1.801L310 469l2.027-1.605c6.675-5.529 11.103-11.202 13.556-19.564l.807-2.738z"/><path fill="#2194ff" d="m184 443 2.305.038c2.42.048 4.838.126 7.257.212l2.344.042c3.6.159 5.717.422 8.621 2.63C206 448 206 448 206 450l-2 2 3 1-2 1 1 3c-.938 2.188-.938 2.188-2 4l3 1-1 3 2 2-1.062 3.188c-.9 3.657-.943 5.294.062 8.812 0 1.572-.015 3.143-.035 4.715l-.027 3.223-.036 3.214c-.034 2.924-.034 2.924 1.098 5.848a119 119 0 0 1-2 7l2 1v2h-2l1 6h-4l1 2.812c1 3.188 1 3.188 1 6.188l-2 1v5h2v2l-2 2c-1.265 2.853-1.265 2.853-.375 5.188.407 3.051.013 4.191-1.102 6.988l-.854 2.173L200 547a852 852 0 0 1-13.375.312l-3.793.127c-9.086.119-16.067-1.102-22.936-7.354-9.063-9.392-10.049-19.999-10.099-32.476l-.017-3.332q-.014-3.485-.02-6.97c-.01-3.531-.041-7.061-.072-10.592q-.01-3.397-.016-6.793l-.038-3.167c.034-11.123 2.309-18.568 10.081-26.618 7.693-7.194 14.06-7.358 24.285-7.137m22 30 2 1Z"/><path fill="#665cff" d="M331.02 498.484c7.599 6.102 13.687 14.963 15.98 24.516.34 4.176.286 8.313.188 12.5l-.041 3.36A961 961 0 0 1 347 547h-20l.14 7.925q.047 3.854.08 7.706.03 2.652.082 5.303c.224 11.624.053 21.277-6.427 31.378C316.013 603.857 310.805 608 304 608l-1-3 2-1-2-2-2-3h2l1-4h-6l-1-2h6c-1.391-2.784-3.155-2.979-6-4l.625-2.25c.429-3.142-.105-4.069-1.625-6.75 0-3 0-3 1-6h-2l-.375-1.875c-.497-2.317-.497-2.317-2.625-4.125l2-1-2-3c.313-1.875.313-1.875 1-4 .34-1.666.676-3.332 1-5l-4 1 .625-2.125c.454-3.477-.35-5.649-1.625-8.875h2l-1-7h-2l.098-6.055c.029-2.027.029-2.027-1.098-3.945h2l-1.062-3.25c-.891-3.563-.953-4.479.062-7.75l-.562-2.063L287 513l2-3h-2c.499-3.688 1.1-5.605 4-8h-2c-.125-7.625-.125-7.625 1-11v-4c13.847-5.665 29.924 3.328 41.02 11.484M290 495l1 2Zm0 4 1 2Zm-1 24 1 2Zm5 34v2l2-1zm1 11v2l2-1zm4 17v3l2-1zm-11-46 2 2-2 1zm7 46 2 1Zm2 5 3 1Zm3 1h3v2l-4-1z"/><path fill="#314559" d="M567 534c8.338 5.892 15.223 13.535 17.625 23.625 1.404 12.634.125 23.018-7.625 33.375-6.526 7.065-14.258 11.598-23.906 12.273-11.386.356-20.606-.831-29.969-7.961-7.922-7.535-12.168-17.915-12.563-28.687.296-11.021 4.502-19.475 12.063-27.309C534.74 528.071 552.366 527.063 567 534"/><path fill="#304458" d="m622 409 2.105 1.285c8.082 5.444 12.757 13.33 14.895 22.715v16h-54c3.367 10.613 3.367 10.613 11.629 17.262 6.688 2.082 14.187 2.003 20.683-.578 2.646-1.461 5.155-3.039 7.688-4.684l3-1c2.48 1.652 2.48 1.652 5.188 3.938l2.73 2.277L638 468c-5.379 7.752-13.809 12.605-23.016 14.68-12.569 1.349-23.449.564-33.886-6.965-7.664-6.266-13.249-14.083-14.369-24.148-.873-13.27-.284-23.499 8.583-33.879 11.822-12.285 31.13-18.696 46.688-8.688"/><path fill="#2f4457" d="M797 534.063c9.101 6.163 13.457 13.34 16 23.938v13h-51c3.331 8.327 5.263 13.13 13 17 8.242.774 14.735.49 21.914-3.81 2.159-1.233 3.597-2.034 6.086-2.19 2.141 1.433 2.141 1.433 4.25 3.437l2.141 1.995L811 589c-2.655 6.16-8.459 9.485-14.312 12.375-8.912 3.288-21.271 3.275-30.25.188C756.349 596.51 749.841 588.503 746 578c-2.425-11.375-1.829-21.822 4-32 4.998-7.511 11.874-11.55 19.875-15.376 9.26-1.852 18.819-1.23 27.125 3.438"/><path fill="#314559" d="M497.242 510.824A156 156 0 0 1 505 516c-.624 3.761-2.348 6.19-4.563 9.25l-1.94 2.703c-.495.675-.989 1.351-1.497 2.047a265 265 0 0 1-6.367-3.254c-6.494-3.395-6.494-3.395-13.633-4.746l-2.305-.153c-8.384-.318-13.867 1.393-20.383 6.715-7.029 6.593-9.809 14.012-10.55 23.481-.23 9.742 1.261 17.717 7.55 25.394 5.96 6.24 12.066 8.631 20.628 8.905 6.958.101 12.301.115 18.2-4.053C492 581 492 581 497 579l9 10c-3.456 6.911-9.764 9.814-16.875 12.375-13.753 3.833-29.268 3.06-41.86-3.883C436.338 590.373 430.042 581.28 426 569c-2.965-16.02-.852-30.748 7.687-44.563 14.243-20.454 42.091-25.69 63.555-13.613"/><path fill="#314559" d="M646 533c7.137 4.949 10.516 10.169 12.581 18.629.8 4.527.661 9.069.614 13.652l-.008 3.194c-.011 3.342-.036 6.683-.062 10.025l-.027 6.828q-.035 8.337-.098 16.672h-17l-.06-3.928c-.076-4.829-.165-9.658-.257-14.486q-.058-3.13-.105-6.259c-.046-3.006-.104-6.012-.164-9.018l-.035-2.807c-.15-6.649-.412-12.191-4.879-17.44-3.513-2.615-6.9-2.654-11.168-2.417-4.483.683-6.613 2.557-9.582 5.855-2.366 3.38-2.876 5.948-2.955 9.971l-.061 2.73-.05 2.936-.063 3.014q-.098 4.767-.183 9.537l-.131 6.462q-.16 7.926-.307 15.85h-17v-70h15l2 7 1.285-1.207c9.44-8.527 21.108-10.819 32.715-4.793"/><path fill="#2f4457" d="M724.75 534.25c5.245 4.079 8.027 9.248 9.25 15.75.266 4.022.233 8.03.195 12.059l-.008 3.467c-.011 3.637-.037 7.274-.062 10.912l-.027 7.419q-.035 9.072-.098 18.143h-16l-.06-3.836c-.076-4.717-.165-9.434-.257-14.151q-.058-3.057-.105-6.113a1847 1847 0 0 0-.164-8.81l-.035-2.741c-.176-7.602-.948-13.578-6.379-19.349-3.717-1.859-7.943-1.437-12-1-5.116 2.369-7.95 5.806-10 11-.574 3.513-.605 6.973-.609 10.527l-.05 2.997c-.049 3.138-.07 6.275-.091 9.414q-.042 3.204-.09 6.408A2208 2208 0 0 0 688 602h-17v-70h16l1 7 1.25-1.207c10.942-10.038 22.483-9.46 35.5-3.543"/><path fill="#304458" d="M904 511h16v21h18v13h-18v13l2.762-.219c11.424-.818 22.787-.881 34.238-.781v15c-8.074.973-15.998 1.119-24.125 1.062l-3.766-.013q-4.554-.018-9.109-.049c.088 1.584.196 3.168.312 4.75l.176 2.672c.583 2.934 1.506 4.387 3.512 6.578 3.031 1.216 6.012 1.105 9.25 1.062L938 588v15c-2.834.082-5.665.141-8.5.188l-2.398.076c-6.864.084-12.06-1.304-17.914-5.076-3.879-3.879-5.355-7.57-5.529-13q.002-2.809.048-5.618l.013-3.001c.017-3.148.054-6.296.092-9.444q.023-3.211.042-6.422.051-7.852.146-15.703h-13v-13h13z"/><path fill="#304558" d="M879 536a55.6 55.6 0 0 1 8 8c-3.676 4.01-7.19 6.453-12 9l-1.68-1.277-2.195-1.661-2.18-1.652c-4.605-3.338-9.427-2.87-14.945-2.41-3.42 1.29-3.42 1.29-6 3l-3 1c-1.119 1.646-1.119 1.646-2 4l-1.625 3.562c-2.131 5.91-2.632 12.045-.426 18 2.814 5.397 5.977 8.777 11.363 11.688 7.322 2.043 11.866.597 18.391-2.863 2.653-1.549 2.653-1.549 6.297-4.387l10 9c-2.025 4.05-3.044 5.085-6.625 7.562l-2.477 1.754c-6.504 3.778-12.268 5.225-19.773 5.122l-2.396-.03C843.995 603.052 837.05 598.419 829 590c-7.597-9.35-8.175-20.428-7-32 1.9-9.628 8.912-16.931 16.375-22.938 12.803-8.299 28.006-6.364 40.625.938"/><path fill="#5066ff" d="M297.895 411.84c6.729 3.07 11.955 7.837 15.266 14.492 2.233 7.097 1.924 15.334-1.161 22.106-3.358 5.775-7.846 9.914-13.75 13-8.351 1.445-15.558 1.457-23.058-2.828-6.145-4.514-9.92-11.121-11.192-18.61-.38-7.841 1.567-14.525 6-21 7.685-8.303 16.862-10.361 27.895-7.16"/><path fill="#f6fcfe" d="M696.563 421.5c5.683 3.662 10.422 9.015 12.438 15.5 1.04 8.981.389 16.565-5 24-4.261 4.718-8.967 7.01-15.25 7.5-5.72-.143-9.555-2.793-13.75-6.5-5.695-6.194-7.558-12.775-7.376-21.121.859-6.588 3.976-11.952 8.875-16.379 6.346-4.831 12.61-6.138 20.063-3"/><path fill="#5369ff" d="M277.936 373.467c7.125-.066 7.125-.066 9.559-.043 2.038.014 4.07-.02 6.109-.058 10.227.015 17.58 1.956 25.27 8.822 7 7.665 7.69 16.475 7.376 26.437l-.054 3.332A599 599 0 0 1 326 420l-1.801-2.253c-.725-.907-1.451-1.813-2.2-2.747l-1.604-2.027c-5.976-7.215-14.257-14.051-23.856-15.29-2.792-.157-5.556-.2-8.351-.183l-2.97.009c-7.078.159-12.438 1.179-18.218 5.49-2.875 1.939-2.875 1.939-5 3-2.312-.811-2.312-.811-4-2l3-1 2-2-1-3h2v-3a104 104 0 0 1 3-3v-2h2l1-3q1.005-2.106 2.063-4.186l1.097-2.168L274 379l-2-1c1.692-3.04 2.442-3.898 5.936-4.533M266 395l1 2Zm5-16 2 2-2 1zm-3 4 2 1Zm-3 8 2 1-2 1zm-6 15 2 2h-2z"/><path fill="#f6fcfe" d="M556.387 545.84c5.56 3.146 9.308 8.012 11.227 14.109 1.277 6.772 1.123 14.095-2.614 20.05-4.704 5.065-9.567 9.226-16.687 9.5-6.037-.124-9.873-2.568-14.313-6.5-4.975-5.484-6.082-12.378-5.953-19.616.93-7.113 4.637-11.728 9.953-16.383 5.267-3.391 12.609-3.193 18.387-1.16"/><path fill="#2e4356" d="M745 406h17v75h-17z"/><path fill="#417bff" d="m248 503 2 2-2 1c-.074 3.343-.065 5.804 1 9h-2l1 3h-2l.562 2.312C247 523 247 523 246 526h2v4h-2l.035 2.117.027 2.758.036 2.742C246 540 246 540 245 542l2 1-2 3 1 3-1 2h2l-.07 2.336-.055 3.039-.07 3.023c-.077 2.765-.077 2.765 2.195 4.602-.812 2.438-.812 2.438-2 5l-3 1 5 2v3l-5 2 .562 2.312C245 582 245 582 244 585h-2c-.349 3.717-.349 3.717 1.5 6.812L245 593l-2 4h-2c2.36 2.36 3.779 2.491 7 3v2l-5 2c-5.69-5.216-9.668-10.847-10.178-18.767l-.075-3.22-.09-3.663-.079-3.952-.042-2.023q-.11-5.308-.203-10.617a1721 1721 0 0 0-.24-10.893c-.066-2.812-.117-5.624-.164-8.437-.037-1.982-.09-3.963-.142-5.945-.134-9.69.667-19.704 7.651-27.045L242 507l1.625-1.75C245 504 245 504 248 503m-4 57v3l2-1zm4-41 1 2-2-1zm-2 25 2 1Zm1 59v3l-3-2z"/><path fill="#645bff" d="M304 418c3.825 1.275 4.193 2.611 6.125 6.062A181 181 0 0 0 313 429h1c.59 9.106.587 16.47-5 24-3.449 3.729-6.787 7.29-12 8-6.573-1.36-6.573-1.36-9-5-.195-2.48-.195-2.48-.125-5.188l.055-2.73L288 446l2-1-1-5 2-1c1.882-3.032 2-4.245 2-8 1.5-1.625 1.5-1.625 3-3v-2l5-2v-2h4zm-15 41 4 2h-5z"/><path fill="#5c57ff" d="M327 443h42v1h-31v2h-2v2h-2l1 3c-.777 2.262-.777 2.262-1.938 4.688l-1.152 2.449L331 460l2 1-1.062 2.25c-.999 2.929-.853 3.904.062 6.75l-1 1 3 2-2 3h-2l1 4h5l-1 4c-3.761-1.089-7.066-2.533-10.5-4.375-6.211-3.2-12.767-4.888-19.5-6.625l2.254-1.801L310 469l2.027-1.605c8.674-7.184 11.689-13.449 14.973-24.395"/><path fill="#f6fcfd" d="M612.375 420.063c3.955 2.918 7.411 6.51 9.625 10.938v6h-38c4.87-14.611 12.784-21.846 28.375-16.938"/><path fill="#eff6fa" d="M787.313 543.953c4.02 2.336 6.903 4.638 8.688 9.047l1 7h-35c1.09-6.552 2.566-10.02 7.534-14.332 5.387-3.604 11.778-4.188 17.778-1.715"/><path fill="#304558" d="M759 377c2.773 1.706 3.719 2.954 4.562 6.09.606 3.794.706 6.247-.75 9.848-2.928 3.332-4.784 3.929-9.187 4.5-4.81-.581-6.239-2.052-9.625-5.438-1.433-2.866-1.306-4.813-1-8 1.623-3.013 3.101-5.261 5.75-7.438 3.561-.89 6.728-.531 10.25.438"/><path fill="#4d63ff" d="M253 455c3.363 1.208 4.782 2.798 6.688 5.75 2.896 4.074 6.118 6.441 10.359 9.023C272 471 272 471 274 473q-3.843 1.223-7.688 2.438l-2.185.697c-3.689 1.162-7.307 2.209-11.127 2.865l2-4h-2l-1-3-2-1 1-3-.562-1.812c-.619-3.094.542-5.256 1.562-8.188l-1-2zm-2 24 2 1Z"/><path fill="#655eff" d="M324 394c2 2 2 2 2.227 4.43l-.032 3.015-.019 3.262-.051 3.418-.027 3.441q-.036 4.218-.098 8.434c-6.66-8.146-6.66-8.146-7.312-13.625.486-3.696 1.693-5.756 4.312-8.375.643-2.069.643-2.069 1-4m-4 2 2 2h-2zm-3 11 2 1Z"/><path fill="#5f58ff" d="M332 480h4l-1 4-4-2z"/><path fill="#546aff" d="m251 476 2 2h-3z"/></svg>