<?xml version="1.0" encoding="UTF-8"?>
<svg version="1.1" xmlns="http://www.w3.org/2000/svg" width="340" height="364">
<path d="M0 0 C112.2 0 224.4 0 340 0 C340 120.12 340 240.24 340 364 C227.8 364 115.6 364 0 364 C0 243.88 0 123.76 0 0 Z " fill="#F7FDFE" transform="translate(0,0)"/>
<path d="M0 0 C1.55072944 0.00171622 3.10146178 0.00164025 4.65219116 -0.00012207 C7.88137065 0.00151978 11.10984634 0.02000899 14.33886719 0.05175781 C18.45187075 0.09149895 22.56395902 0.095788 26.6771183 0.08829498 C29.87216389 0.08520808 33.06700851 0.09740544 36.26200485 0.11442566 C37.77766025 0.12139244 39.29333838 0.12458799 40.80900955 0.12373352 C55.09988314 0.13598534 66.58770613 2.40918508 77.5234375 12.15625 C78.2246875 12.960625 78.9259375 13.765 79.6484375 14.59375 C80.3290625 15.33625 81.0096875 16.07875 81.7109375 16.84375 C86.54543882 23.70562284 88.24646599 29.89945321 88.0390625 38.22265625 C88.03340271 39.09776352 88.02774292 39.97287079 88.02191162 40.87449646 C87.99974185 43.63566706 87.94958521 46.39547993 87.8984375 49.15625 C87.8783473 51.0422988 87.86010097 52.9283682 87.84375 54.81445312 C87.79994118 59.40806534 87.73105241 64.0006785 87.6484375 68.59375 C84.61064798 65.66461928 82.74547864 63.14648176 80.8984375 59.34375 C74.57965438 47.48023469 64.22404273 40.71334482 51.6484375 36.59375 C40.42707086 33.43472432 26.12231101 34.81192035 15.6484375 39.59375 C8.66833044 44.0740457 3.05989379 49.58413541 -1.3515625 56.59375 C-1.81304687 57.30273438 -2.27453125 58.01171875 -2.75 58.7421875 C-9.74738775 70.26967599 -10.04801978 85.01341953 -7.2265625 97.96875 C-3.40839012 111.13609214 5.3227175 120.36008319 16.390625 127.9296875 C18.6484375 129.59375 18.6484375 129.59375 19.6484375 131.59375 C18.99472168 131.79419922 18.34100586 131.99464844 17.66748047 132.20117188 C-6.79079964 139.78766847 -28.99397231 149.75685108 -41.52563477 173.36694336 C-48.91844457 187.80867233 -51.13689798 202.48749614 -51.90625 218.5625 C-51.97187134 219.87105957 -51.97187134 219.87105957 -52.03881836 221.20605469 C-52.14527449 223.3351772 -52.24872999 225.4644494 -52.3515625 227.59375 C-59.67978148 227.67034857 -67.00789571 227.72257844 -74.33642578 227.75854492 C-76.8250718 227.77355232 -79.31369173 227.79396464 -81.80224609 227.82006836 C-85.39687575 227.85680706 -88.99115314 227.8735575 -92.5859375 227.88671875 C-93.68331238 227.90220261 -94.78068726 227.91768646 -95.91131592 227.93363953 C-108.43356764 227.93631588 -119.11300845 225.53069763 -128.3203125 216.70703125 C-139.74164116 204.39038657 -140.50976484 190.22006312 -140.5546875 174.1640625 C-140.55751488 173.47779659 -140.56034225 172.79153069 -140.56325531 172.08446884 C-140.57816657 168.45490902 -140.58744777 164.82538815 -140.59179688 161.19580078 C-140.5972801 157.47512621 -140.62132797 153.75481779 -140.64976883 150.03425789 C-140.66851274 147.14638259 -140.67360693 144.25859365 -140.67513275 141.37066269 C-140.67813166 140.00011054 -140.68606502 138.62955889 -140.69931793 137.25906754 C-140.8209156 123.72273282 -138.54992803 112.15495997 -128.94921875 102.0703125 C-121.14830664 94.82074305 -114.70762361 91.45876791 -104.00073242 91.48022461 C-102.10933784 91.48033791 -102.10933784 91.48033791 -100.17973328 91.48045349 C-98.81383219 91.48555931 -97.44793152 91.4907753 -96.08203125 91.49609375 C-94.67670238 91.4979603 -93.27137285 91.49938308 -91.86604309 91.50038147 C-88.17862125 91.504188 -84.4912392 91.51400226 -80.80383301 91.52508545 C-77.03654519 91.53533975 -73.2692509 91.53988768 -69.50195312 91.54492188 C-62.1184715 91.5556263 -54.73502259 91.5726802 -47.3515625 91.59375 C-47.36044495 90.87902023 -47.36932739 90.16429047 -47.378479 89.42790222 C-47.45908096 82.64727971 -47.51975648 75.86673005 -47.55881119 69.08574963 C-47.5795658 65.60065738 -47.60765632 62.11596545 -47.65332031 58.63110352 C-47.70564561 54.61210589 -47.72460762 50.59351975 -47.7421875 46.57421875 C-47.76283264 45.34043991 -47.78347778 44.10666107 -47.80474854 42.835495 C-47.80820353 29.33689025 -43.64114764 20.4028952 -34.54296875 10.65625 C-24.65431213 1.11708852 -13.13975032 -0.15604325 0 0 Z " fill="#4077FE" transform="translate(152.3515625,26.40625)"/>
<path d="M0 0 C9.38529957 8.00385183 18.99060908 19.53371763 21.38671875 32.0078125 C21.4697055 34.55416729 21.50311133 37.07175133 21.484375 39.6171875 C21.48225258 40.70740204 21.48225258 40.70740204 21.48008728 41.81964111 C21.47450667 44.13240744 21.46195779 46.44507562 21.44921875 48.7578125 C21.44420124 50.32942568 21.43963877 51.90104039 21.43554688 53.47265625 C21.42539608 57.31777622 21.40581707 61.16268498 21.38671875 65.0078125 C13.46671875 65.0078125 5.54671875 65.0078125 -2.61328125 65.0078125 C-2.55527344 68.47796875 -2.49726563 71.948125 -2.4375 75.5234375 C-2.39840197 78.91924764 -2.36810139 82.3150318 -2.33862305 85.7109375 C-2.31362316 88.05415238 -2.27961176 90.39729043 -2.23608398 92.74023438 C-1.93462849 109.39476376 -2.07476641 121.59118288 -13.38671875 134.74609375 C-22.29047343 143.79043403 -30.83688543 146.0060324 -43.3347168 146.26660156 C-45.8064445 146.27964559 -48.2782508 146.28142739 -50.75 146.2734375 C-52.72913139 146.27630768 -52.72913139 146.27630768 -54.74824524 146.27923584 C-57.52076991 146.28216074 -60.29316445 146.27797334 -63.06567383 146.26855469 C-66.59919613 146.25712792 -70.13241555 146.26375658 -73.66592693 146.27569962 C-77.06897495 146.28470368 -80.47194341 146.27838344 -83.875 146.2734375 C-85.13350266 146.27748596 -86.39200531 146.28153442 -87.68864441 146.28570557 C-99.38278759 146.22349977 -108.01933649 144.04787619 -117.61328125 137.0078125 C-127.72035679 126.67926717 -128.2180694 111.62088142 -128.109375 98.04296875 C-128.10953051 96.43598872 -128.11102805 94.82900832 -128.11378479 93.22203064 C-128.11515921 89.874493 -128.10277462 86.52738878 -128.07983398 83.17993164 C-128.0514754 78.92949871 -128.05419337 74.67978534 -128.0669241 70.42929935 C-128.07394284 67.116593 -128.06602175 63.80404741 -128.05366707 60.49136162 C-128.04921079 58.92597512 -128.0487636 57.36057099 -128.05273247 55.79518318 C-128.07313964 40.66849518 -126.3704082 27.80669035 -117.61328125 15.0078125 C-117.06542969 14.19441406 -116.51757812 13.38101563 -115.953125 12.54296875 C-104.18907558 -3.72646129 -85.73305234 -11.52698501 -66.7421875 -15.609375 C-43.62038532 -18.43825966 -18.8584889 -14.37642651 0 0 Z " fill="#5267FE" transform="translate(244.61328125,187.9921875)"/>
<path d="M0 0 C7.46799461 -0.0933903 14.93592737 -0.16411032 22.40437603 -0.20724869 C25.87371895 -0.22797122 29.34265737 -0.25600043 32.81176758 -0.30175781 C36.81595352 -0.35423186 40.8197262 -0.37307151 44.82421875 -0.390625 C46.04767502 -0.41127014 47.27113129 -0.43191528 48.53166199 -0.45318604 C60.25498661 -0.45618703 71.28330311 1.74511487 80 10 C80.92232422 10.84498047 80.92232422 10.84498047 81.86328125 11.70703125 C90.26835429 20.25608841 92.64012875 31.09830219 92.61778259 42.762146 C92.59887999 44.19040018 92.57913008 45.61864337 92.55859375 47.046875 C92.55432882 48.55372709 92.55201342 50.0605858 92.55152893 51.56744385 C92.54541492 54.70070926 92.52296273 57.83324529 92.48706055 60.96630859 C92.44163553 64.95932096 92.42702233 68.95168022 92.42332363 72.94492722 C92.4188735 76.04726445 92.40353449 79.14946824 92.3844471 82.25174713 C92.3756441 83.72357351 92.36887637 85.19541367 92.36428642 86.66725922 C92.30577726 99.84199494 91.1139898 112.21213025 82.47265625 122.88671875 C73.53897232 131.20880574 61.69169515 135.12084491 49.71875 135.0390625 C48.64560547 135.03342285 47.57246094 135.0277832 46.46679688 135.02197266 C45.65275391 135.01472168 44.83871094 135.0074707 44 135 C43.96036133 134.30140869 43.92072266 133.60281738 43.87988281 132.88305664 C42.5885401 111.16388504 41.01520452 90.01360772 27.453125 72.05859375 C26 70 26 70 25 67 C24.01 66.67 23.02 66.34 22 66 C22 65.34 22 64.68 22 64 C21.46117187 63.75636719 20.92234375 63.51273438 20.3671875 63.26171875 C17.4176446 61.68960265 14.83190615 59.77348812 12.125 57.8125 C-0.04196842 49.24966338 -13.51262679 43.38759473 -28 40 C-28 39.34 -28 38.68 -28 38 C-26.2421875 36.44921875 -26.2421875 36.44921875 -23.875 34.6875 C-23.05 34.0584375 -22.225 33.429375 -21.375 32.78125 C-19.54665451 31.40999088 -17.71212589 30.04697316 -15.875 28.6875 C-9.39954378 22.63435614 -5.74062991 15.8881866 -2.78125 7.64453125 C-2.51086914 6.90706665 -2.24048828 6.16960205 -1.96191406 5.40979004 C-1.30240572 3.60854436 -0.6504218 1.80454668 0 0 Z " fill="#7948FE" transform="translate(240,118)"/>
<path d="M0 0 C0.86512207 -0.00287018 1.73024414 -0.00574036 2.62158203 -0.00869751 C4.44369159 -0.01073148 6.26582331 -0.00524843 8.08789062 0.00732422 C10.86638521 0.02338769 13.64342531 0.00745314 16.421875 -0.01171875 C18.19791986 -0.0097362 19.97396381 -0.00589228 21.75 0 C22.57516113 -0.00607269 23.40032227 -0.01214539 24.25048828 -0.0184021 C29.15775462 0.04101511 32.66685979 0.59108691 36.875 3.3984375 C37.875 6.3984375 37.875 6.3984375 37.875 9.3984375 C37.215 10.3884375 36.555 11.3784375 35.875 12.3984375 C36.865 12.7284375 37.855 13.0584375 38.875 13.3984375 C38.545 14.3884375 38.215 15.3784375 37.875 16.3984375 C37.04611251 19.37158218 37.04611251 19.37158218 36.875 22.3984375 C38.24985532 23.94010392 38.24985532 23.94010392 39.875 25.3984375 C40.65037528 28.37070942 41.05349887 30.60094355 40.37866211 33.6159668 C39.74265923 37.12955127 39.89596601 40.49794054 40.06640625 44.04296875 C40.12465201 45.53970178 40.18258485 47.03644701 40.24023438 48.53320312 C40.33698261 50.87010158 40.43730855 53.20673298 40.54370117 55.54321289 C40.64471195 57.81367607 40.73134265 60.08435965 40.81640625 62.35546875 C40.85173965 63.04220169 40.88707306 63.72893463 40.92347717 64.43647766 C41.10138956 69.48475612 40.2541349 73.59276797 38.875 78.3984375 C39.535 78.3984375 40.195 78.3984375 40.875 78.3984375 C40.875 79.3884375 40.875 80.3784375 40.875 81.3984375 C39.885 81.3984375 38.895 81.3984375 37.875 81.3984375 C38.37 84.8634375 38.37 84.8634375 38.875 88.3984375 C37.555 88.3984375 36.235 88.3984375 34.875 88.3984375 C35.205 89.2646875 35.535 90.1309375 35.875 91.0234375 C36.86731979 94.3725168 37.11689771 96.93123693 36.875 100.3984375 C36.545 100.7284375 36.215 101.0584375 35.875 101.3984375 C35.50739269 103.72661714 35.17258419 106.060276 34.875 108.3984375 C35.535 108.3984375 36.195 108.3984375 36.875 108.3984375 C36.26222388 111.36018873 35.62127478 112.77902533 33.875 115.3984375 C33.77572419 118.35081383 33.94263804 121.24618549 34.09765625 124.1953125 C33.82811475 128.0729271 32.46149862 130.87566514 30.875 134.3984375 C25.93121051 134.49818803 20.98802178 134.57031652 16.04345703 134.61816406 C14.36561869 134.63813449 12.68784864 134.66532082 11.01025391 134.70019531 C-2.94719068 134.98283564 -12.41847721 133.87802826 -22.9296875 123.828125 C-26.10307914 120.3159371 -28.23482373 116.71884041 -30.125 112.3984375 C-30.43050781 111.7178125 -30.73601563 111.0371875 -31.05078125 110.3359375 C-34.78349733 101.27835155 -34.30114847 91.61054901 -34.328125 81.96875 C-34.33095238 81.28248409 -34.33377975 80.59621819 -34.33669281 79.88915634 C-34.35160407 76.25959652 -34.36088527 72.63007565 -34.36523438 69.00048828 C-34.3707176 65.27981371 -34.39476547 61.55950529 -34.42320633 57.83894539 C-34.44195024 54.95107009 -34.44704443 52.06328115 -34.44857025 49.17535019 C-34.45156916 47.80479804 -34.45950252 46.43424639 -34.47275543 45.06375504 C-34.5943531 31.52742032 -32.32336553 19.95964747 -22.72265625 9.875 C-15.41826824 3.08686197 -9.97416829 -0.07340392 0 0 Z " fill="#2193FE" transform="translate(46.125,118.6015625)"/>
<path d="M0 0 C25.25319546 -0.46559572 49.43374135 2.33791245 68.6484375 20.515625 C78.12520548 30.52762572 85.20043091 41.64686037 85.09765625 55.609375 C85.0962413 56.33618469 85.09482635 57.06299438 85.09336853 57.81182861 C85.08778792 60.12459494 85.07523904 62.43726312 85.0625 64.75 C85.05748249 66.32161318 85.05292002 67.89322789 85.04882812 69.46484375 C85.03867733 73.30996372 85.01909832 77.15487248 85 81 C77.08 81 69.16 81 61 81 C61.05800781 84.47015625 61.11601562 87.9403125 61.17578125 91.515625 C61.21487928 94.91143514 61.24517986 98.3072193 61.2746582 101.703125 C61.29965809 104.04633988 61.33366949 106.38947793 61.37719727 108.73242188 C61.67840944 125.37350866 61.54706906 137.58512467 50.234375 150.7265625 C41.37587371 159.73993269 41.37587371 159.73993269 35.36328125 160.203125 C32.875 159.9375 32.875 159.9375 29 159 C29.0928125 157.63875 29.0928125 157.63875 29.1875 156.25 C28.98016583 152.65620765 28.27539763 151.65463057 26 149 C26 148.34 26 147.68 26 147 C26.66 146.67 27.32 146.34 28 146 C28.65213292 143.97536745 28.65213292 143.97536745 29 142 C26.36 142 23.72 142 21 142 C21 140 21 140 22.5 138.375 C22.995 137.92125 23.49 137.4675 24 137 C22.515 136.01 22.515 136.01 21 135 C20.5234375 132.86328125 20.5234375 132.86328125 20.375 130.3125 C20.15694883 127.1689289 19.87049184 124.18409857 19.375 121.0625 C19 118 19 118 20 115 C19.34 115 18.68 115 18 115 C15.81197213 111.07978339 14.75784516 108.47986456 15 104 C14.67 103.01 14.34 102.02 14 101 C14.8125 98.375 14.8125 98.375 16 96 C16.99 95.505 16.99 95.505 18 95 C17.67 93.68 17.34 92.36 17 91 C14.525 91.495 14.525 91.495 12 92 C11.93941406 91.24074219 11.87882813 90.48148437 11.81640625 89.69921875 C11.73261719 88.70535156 11.64882812 87.71148437 11.5625 86.6875 C11.48128906 85.70136719 11.40007812 84.71523438 11.31640625 83.69921875 C11.08187441 80.90624401 11.08187441 80.90624401 10 78 C10.99 78 11.98 78 13 78 C12.67 75.03 12.34 72.06 12 69 C11.01 69 10.02 69 9 69 C8.505 62.565 8.505 62.565 8 56 C8.66 56 9.32 56 10 56 C9.67257813 55.15824219 9.34515625 54.31648438 9.0078125 53.44921875 C7.9164162 49.71393607 7.80013144 46.69318703 7.875 42.8125 C7.89304688 41.60207031 7.91109375 40.39164063 7.9296875 39.14453125 C7.95289063 38.10683594 7.97609375 37.06914062 8 36 C8.03834825 33.09107709 8.03834825 33.09107709 7.8125 30.5625 C8.03721591 27.49138261 8.9857293 26.26605454 11 24 C10.67 23.67 10.34 23.34 10 23 C9.40295416 16.12703048 10.41068944 9.66942825 12 3 C12.99 2.67 13.98 2.34 15 2 C10.05 1.67 5.1 1.34 0 1 C0 0.67 0 0.34 0 0 Z " fill="#665DFE" transform="translate(181,172)"/>
<path d="M0 0 C1.91619141 -0.00773437 1.91619141 -0.00773437 3.87109375 -0.015625 C13.4139198 0.67105455 21.35485734 6.18018475 27.5625 13.25 C34.37276165 21.97564774 34.39567437 30.47019401 33.5625 41.25 C31.73943602 50.89499387 24.71111284 58.49524127 16.85546875 64.01171875 C12.28892729 66.75388474 8.35362633 66.93568165 3.125 66.75 C1.93293945 66.75386719 1.93293945 66.75386719 0.71679688 66.7578125 C-8.02526266 66.61554953 -15.18354738 64.38072772 -21.58203125 58.33984375 C-28.59077452 50.44578554 -31.981595 41.75632237 -31.75 31.21875 C-30.84261989 22.59863894 -27.65852224 14.38880609 -21.4375 8.25 C-14.58247398 2.82411368 -8.85657151 -0.03567602 0 0 Z " fill="#5166FE" transform="translate(190.4375,76.75)"/>
<path d="M0 0 C1.25619141 0.00064453 2.51238281 0.00128906 3.80664062 0.00195312 C5.11181641 0.01806641 6.41699219 0.03417969 7.76171875 0.05078125 C9.05529297 0.04755859 10.34886719 0.04433594 11.68164062 0.04101562 C18.27071472 0.0780897 24.15601354 0.36126033 30.44921875 2.36328125 C30.44921875 1.70328125 30.44921875 1.04328125 30.44921875 0.36328125 C41.27550751 3.6430099 49.15052948 9.50054638 54.56072998 19.39634705 C57.30722996 25.08906196 57.99619524 29.71772575 57.83984375 35.9921875 C57.83418396 36.86729477 57.82852417 37.74240204 57.82269287 38.64402771 C57.8005231 41.40519831 57.75036646 44.16501118 57.69921875 46.92578125 C57.67912855 48.81183005 57.66088222 50.69789945 57.64453125 52.58398438 C57.60072243 57.17759659 57.53183366 61.77020975 57.44921875 66.36328125 C54.41142923 63.43415053 52.54625989 60.91601301 50.69921875 57.11328125 C44.01054745 44.55530089 32.96253988 38.05277734 19.73046875 33.8125 C9.80470167 31.8579397 -0.64680026 32.92124787 -10.30078125 35.61328125 C-11.03828613 35.81775879 -11.77579102 36.02223633 -12.53564453 36.23291016 C-17.12807916 37.62932271 -20.55930235 39.64767097 -24.55078125 42.36328125 C-27.42578125 42.11328125 -27.42578125 42.11328125 -29.55078125 41.36328125 C-29.55078125 40.37328125 -29.55078125 39.38328125 -29.55078125 38.36328125 C-28.23078125 37.70328125 -26.91078125 37.04328125 -25.55078125 36.36328125 C-25.55078125 35.04328125 -25.55078125 33.72328125 -25.55078125 32.36328125 C-24.89078125 32.36328125 -24.23078125 32.36328125 -23.55078125 32.36328125 C-23.57140625 31.62078125 -23.59203125 30.87828125 -23.61328125 30.11328125 C-23.55749437 27.65865846 -23.24379085 25.70218864 -22.55078125 23.36328125 C-21.56078125 23.36328125 -20.57078125 23.36328125 -19.55078125 23.36328125 C-19.55078125 22.70328125 -19.55078125 22.04328125 -19.55078125 21.36328125 C-18.56078125 21.36328125 -17.57078125 21.36328125 -16.55078125 21.36328125 C-16.42703125 20.64140625 -16.30328125 19.91953125 -16.17578125 19.17578125 C-15.55078125 16.36328125 -15.55078125 16.36328125 -14.48828125 13.73828125 C-13.36719798 11.32375985 -13.36719798 11.32375985 -13.55078125 8.36328125 C-12.89078125 8.03328125 -12.23078125 7.70328125 -11.55078125 7.36328125 C-11.55078125 6.04328125 -11.55078125 4.72328125 -11.55078125 3.36328125 C-7.82608928 0.28583226 -4.7290685 -0.0123894 0 0 Z " fill="#536BFE" transform="translate(182.55078125,28.63671875)"/>
<path d="M0 0 C1.32 0.66 2.64 1.32 4 2 C3.34 2.66 2.68 3.32 2 4 C1.79451868 6.53506811 1.79451868 6.53506811 1.9375 9.375 C2.04393358 12.80863973 2.00777186 15.70325794 1 19 C0.34 19 -0.32 19 -1 19 C-1 19.66 -1 20.32 -1 21 C0.32 21.33 1.64 21.66 3 22 C2.34 22.33 1.68 22.66 1 23 C0.34444881 25.52733235 0.34444881 25.52733235 0 28 C0.66 28.33 1.32 28.66 2 29 C2 30.98 2 32.96 2 35 C1.01 35 0.02 35 -1 35 C-0.98839844 35.98742187 -0.97679687 36.97484375 -0.96484375 37.9921875 C-0.95582031 39.27351563 -0.94679687 40.55484375 -0.9375 41.875 C-0.92589844 43.15117187 -0.91429687 44.42734375 -0.90234375 45.7421875 C-1 49 -1 49 -2 51 C-1.34 51 -0.68 51 0 51 C-0.14107747 52.45880109 -0.28802415 53.91703551 -0.4375 55.375 C-0.51871094 56.18710938 -0.59992188 56.99921875 -0.68359375 57.8359375 C-1 60 -1 60 -2 62 C-1.34 62 -0.68 62 0 62 C0.04898438 62.96421875 0.09796875 63.9284375 0.1484375 64.921875 C0.22320312 66.18515625 0.29796875 67.4484375 0.375 68.75 C0.44460937 70.00296875 0.51421875 71.2559375 0.5859375 72.546875 C0.96113217 75.67585698 1.55531497 77.30120542 3 80 C2.3125 82.6875 2.3125 82.6875 1 85 C-0.485 85.495 -0.485 85.495 -2 86 C-1.175 86.4125 -0.35 86.825 0.5 87.25 C1.7375 88.11625 1.7375 88.11625 3 89 C3 90.32 3 91.64 3 93 C0.03 93.99 0.03 93.99 -3 95 C-3 98.3 -3 101.6 -3 105 C-4.485 105.495 -4.485 105.495 -6 106 C-5.5359375 107.85625 -5.5359375 107.85625 -5.0625 109.75 C-4.70833333 111.16666667 -4.35416667 112.58333333 -4 114 C-3.7834375 114.70125 -3.566875 115.4025 -3.34375 116.125 C-3 118 -3 118 -4.4375 120.25 C-4.953125 120.8275 -5.46875 121.405 -6 122 C-3.36 122.99 -0.72 123.98 2 125 C1.67 125.598125 1.34 126.19625 1 126.8125 C-0.20787988 129.05386471 -0.20787988 129.05386471 0 132 C-0.99 131.67 -1.98 131.34 -3 131 C-3.99 131 -4.98 131 -6 131 C-9.87622135 129.1044184 -11.9313098 127.19211246 -14.125 123.5 C-14.60195312 122.7265625 -15.07890625 121.953125 -15.5703125 121.15625 C-20.15147263 111.04265058 -20.44727323 101.12041691 -20.3984375 90.23046875 C-20.40046444 88.62062957 -20.403381 87.01079128 -20.40713501 85.4009552 C-20.41153307 82.04154644 -20.40521184 78.68237857 -20.39111328 75.32299805 C-20.37406448 71.05683935 -20.3838512 66.79124889 -20.40183067 62.5251112 C-20.41277281 59.20384086 -20.40917423 55.88270085 -20.4014473 52.56142616 C-20.39947178 50.99045046 -20.40180928 49.41946221 -20.40888596 47.84850121 C-20.45711876 34.13101211 -20.25240298 18.40035443 -10.0390625 8.00390625 C-6.83492692 5.13924228 -3.44681557 2.56400089 0 0 Z " fill="#417AFF" transform="translate(137,196)"/>
<path d="M0 0 C2.625 -0.0625 2.625 -0.0625 6 1 C13.37606385 9.52910372 13.61731781 18.07168047 13.16601562 28.85205078 C12.44011701 38.24389785 6.67886362 44.80368154 0 51 C-4.13126232 54.23095208 -6.66789803 56 -12 56 C-12 55.34 -12 54.68 -12 54 C-16.455 54.495 -16.455 54.495 -21 55 C-20.67 53.68 -20.34 52.36 -20 51 C-20.33 50.34 -20.66 49.68 -21 49 C-21.07116382 46.62597499 -21.08409085 44.24999323 -21.0625 41.875 C-21.05347656 40.59367187 -21.04445312 39.31234375 -21.03515625 37.9921875 C-21.02355469 37.00476563 -21.01195312 36.01734375 -21 35 C-20.34 35 -19.68 35 -19 35 C-19.061875 33.783125 -19.12375 32.56625 -19.1875 31.3125 C-19.19449897 27.32308746 -18.22827777 25.34241665 -16 22 C-15.32811503 19.66816393 -14.66084583 17.33498858 -14 15 C-13.34 14.34 -12.68 13.68 -12 13 C-11.3574765 10.93125966 -11.3574765 10.93125966 -11 9 C-8.69 8.34 -6.38 7.68 -4 7 C-4 6.34 -4 5.68 -4 5 C-2.35 5 -0.7 5 1 5 C0.67 3.35 0.34 1.7 0 0 Z " fill="#645CFE" transform="translate(211,87)"/>
<path d="M0 0 C0.95708359 0.00222061 1.91416718 0.00444122 2.9002533 0.00672913 C3.98129837 0.00680466 5.06234344 0.00688019 6.17614746 0.00695801 C7.94018166 0.01469994 7.94018166 0.01469994 9.73985291 0.02259827 C10.93702438 0.02401321 12.13419586 0.02542816 13.36764526 0.02688599 C17.20918732 0.03250472 21.05067208 0.04506041 24.89219666 0.05775452 C27.48920102 0.0627671 30.0862063 0.06733043 32.68321228 0.07142639 C39.06539344 0.08248024 45.44754096 0.0992366 51.82969666 0.12025452 C51.82969666 0.45025452 51.82969666 0.78025452 51.82969666 1.12025452 C38.62969666 1.12025452 25.42969666 1.12025452 11.82969666 1.12025452 C11.82969666 1.78025452 11.82969666 2.44025452 11.82969666 3.12025452 C11.16969666 3.12025452 10.50969666 3.12025452 9.82969666 3.12025452 C9.82969666 4.11025452 9.82969666 5.10025452 9.82969666 6.12025452 C9.16969666 6.45025452 8.50969666 6.78025452 7.82969666 7.12025452 C7.91219666 7.92462952 7.99469666 8.72900452 8.07969666 9.55775452 C7.74675683 14.30214698 5.92805142 17.90480968 3.82969666 22.12025452 C4.48969666 22.12025452 5.14969666 22.12025452 5.82969666 22.12025452 C5.66469666 22.75962952 5.49969666 23.39900452 5.32969666 24.05775452 C4.44275086 29.49029749 3.70469241 34.43274815 6.82969666 39.12025452 C6.16969666 40.11025452 5.50969666 41.10025452 4.82969666 42.12025452 C3.83969666 42.12025452 2.84969666 42.12025452 1.82969666 42.12025452 C2.32469666 44.59525452 2.32469666 44.59525452 2.82969666 47.12025452 C5.13969666 47.12025452 7.44969666 47.12025452 9.82969666 47.12025452 C9.49969666 49.10025452 9.16969666 51.08025452 8.82969666 53.12025452 C3.82162218 52.15716327 -0.21341005 50.68670444 -4.73280334 48.30775452 C-12.75223939 44.13969094 -21.36260715 41.16804388 -30.17030334 39.12025452 C-30.17030334 38.46025452 -30.17030334 37.80025452 -30.17030334 37.12025452 C-28.41249084 35.56947327 -28.41249084 35.56947327 -26.04530334 33.80775452 C-25.22030334 33.17869202 -24.39530334 32.54962952 -23.54530334 31.90150452 C-21.71695786 30.5302454 -19.88242923 29.16722767 -18.04530334 27.80775452 C-10.7248138 20.9646882 -7.1516056 13.26803529 -4.11561584 3.92884827 C-2.84633237 0.15771266 -2.84633237 0.15771266 0 0 Z " fill="#5E58FE" transform="translate(242.17030334472656,118.87974548339844)"/>
<path d="M0 0 C4.76073669 1.23203312 6.8030907 2.45372001 9.5625 6.5 C13.3587471 11.58135798 17.61101913 15.08678849 22.69555664 18.77539062 C26.92104113 21.84208227 26.92104113 21.84208227 28 24 C3.49475064 32.05567796 3.49475064 32.05567796 -3 30 C-2.505 28.515 -2.505 28.515 -2 27 C-0.68 27.33 0.64 27.66 2 28 C2.33 27.34 2.66 26.68 3 26 C2.01 25.67 1.02 25.34 0 25 C-0.33 24.01 -0.66 23.02 -1 22 C-1.66 21.34 -2.32 20.68 -3 20 C-3.046875 16.953125 -3.046875 16.953125 -2.75 13.25 C-2.66234375 12.03828125 -2.5746875 10.8265625 -2.484375 9.578125 C-2.02135958 6.15778526 -1.20668407 3.2244181 0 0 Z " fill="#4E65FE" transform="translate(144,134)"/>
<path d="M0 0 C1.19908346 3.69818333 1.02614574 7.0921785 0.87890625 10.953125 C0.85529526 11.61334656 0.83168427 12.27356812 0.80735779 12.95379639 C0.7310719 15.052769 0.64689847 17.15133949 0.5625 19.25 C0.5092441 20.67706397 0.45650396 22.10414728 0.40429688 23.53125 C0.27550501 27.02107733 0.13963981 30.51058798 0 34 C-5.55294148 28.53899464 -9.85960075 24.14315636 -10 16 C-8.87546426 11.42459888 -7.06563041 7.59878353 -4 4 C-3.34 3.01 -2.68 2.02 -2 1 C-1.67 1.33 -1.34 1.66 -1 2 C-0.67 1.34 -0.34 0.68 0 0 Z " fill="#645FFE" transform="translate(239,55)"/>
<path d="M0 0 C0.33 0 0.66 0 1 0 C1.01839432 0.92992767 1.03678864 1.85985535 1.05574036 2.81796265 C1.23158243 11.61545298 1.42215644 20.41251954 1.62686634 29.20938683 C1.73162443 33.73110789 1.83133124 38.25281884 1.91918945 42.77490234 C2.0042936 47.14540092 2.10306429 51.51540295 2.21100426 55.88539505 C2.24968076 57.54609348 2.28357239 59.20691102 2.31241798 60.8678093 C2.36079655 77.01796553 2.36079655 77.01796553 9.6875 90.9375 C13 94.71635611 13 94.71635611 13 98 C9.0191152 95.16133851 6.93482745 92.64259194 4.8125 88.25 C4.32394531 87.26515625 3.83539063 86.2803125 3.33203125 85.265625 C0.72496448 78.87410646 -0.25062331 73.18200604 -0.22705078 66.29882812 C-0.22734283 65.57589569 -0.22763489 64.85296326 -0.22793579 64.10812378 C-0.2265567 61.74903821 -0.21106362 59.39027951 -0.1953125 57.03125 C-0.1915773 55.38358737 -0.18873272 53.73592249 -0.18673706 52.08825684 C-0.17914052 47.77447256 -0.15952669 43.46082528 -0.1373291 39.14709473 C-0.11678448 34.73610283 -0.107717 30.32508856 -0.09765625 25.9140625 C-0.07627664 17.27597915 -0.04218935 8.63800667 0 0 Z " fill="#6C84FE" transform="translate(117,229)"/>
<path d="M0 0 C0.33 0 0.66 0 1 0 C1 11.88 1 23.76 1 36 C-2.34910895 32.65089105 -3.57447712 31.31912699 -5.25 27.25 C-5.75273437 26.05117187 -5.75273437 26.05117187 -6.265625 24.828125 C-6.50796875 24.22484375 -6.7503125 23.6215625 -7 23 C-6.34 23 -5.68 23 -5 23 C-3.02 25.97 -3.02 25.97 -1 29 C-0.67 19.43 -0.34 9.86 0 0 Z " fill="#4C7CFF" transform="translate(239,59)"/>
<path d="M0 0 C4.2742558 1.5830577 6.26531794 4.50568404 9 8 C8.67 8.66 8.34 9.32 8 10 C3.92236229 7.13463296 1.97322935 4.56958375 0 0 Z " fill="#6376FF" transform="translate(122,317)"/>
<path d="M0 0 C0.66 0.33 1.32 0.66 2 1 C-2.455 4.465 -2.455 4.465 -7 8 C-7.33 7.34 -7.66 6.68 -8 6 C-5.54080489 3.3651481 -3.42227589 1.25483449 0 0 Z " fill="#4F81FF" transform="translate(166,65)"/>
</svg>
